<?xml version="1.0" encoding="UTF-8"?>
<svg version="1.1" xmlns="http://www.w3.org/2000/svg" width="512" height="512">
<path d="M0,0 L512,0 L512,512 L0,512 Z M147,105 L149,111 L161,134 L163,137 L147,129 L141,127 L147,134 L150,135 L152,139 L159,149 L165,159 L166,159 L166,140 L171,141 L163,124 L155,113 L149,105 Z M126,75 L120,85 L117,94 L115,105 L115,136 L120,151 L130,170 L138,181 L143,188 L145,210 L147,212 L148,211 L149,193 L151,195 L154,195 L154,185 L151,178 L143,168 L137,161 L133,159 L134,168 L135,172 L130,164 L122,143 L119,128 L119,109 L122,92 L126,82 L128,79 L133,80 L142,87 L150,95 L163,113 L177,134 L189,148 L196,154 L207,161 L201,167 L201,170 L231,170 L240,165 L241,177 L236,178 L230,182 L221,189 L199,202 L203,203 L220,193 L226,189 L228,190 L240,195 L250,200 L253,203 L254,202 L260,211 L265,214 L279,217 L296,218 L280,230 L275,238 L274,241 L271,243 L274,244 L275,253 L270,258 L259,265 L245,276 L235,284 L234,286 L239,284 L253,279 L258,275 L267,270 L272,267 L281,266 L286,262 L292,263 L305,263 L313,260 L326,250 L333,244 L336,239 L335,233 L337,233 L337,242 L340,253 L343,262 L343,273 L341,273 L339,266 L334,262 L331,263 L321,284 L306,318 L292,350 L280,377 L281,381 L293,410 L302,431 L304,436 L306,436 L320,390 L319,382 L316,372 L316,362 L320,336 L323,320 L325,305 L335,295 L342,287 L347,280 L354,266 L358,267 L365,274 L376,288 L379,290 L377,286 L369,276 L372,275 L365,267 L364,265 L362,265 L360,261 L360,258 L359,256 L364,257 L363,255 L360,254 L358,245 L351,232 L349,229 L360,233 L370,234 L371,233 L371,223 L368,215 L369,207 L366,203 L362,201 L356,191 L349,185 L337,179 L319,173 L296,168 L290,167 L290,156 L285,134 L280,123 L275,124 L266,138 L259,149 L253,157 L252,158 L241,162 L231,160 L218,156 L212,156 L211,158 L206,157 L193,147 L183,136 L171,118 L163,106 L152,92 L143,83 L131,75 Z M279,268 L272,276 L262,290 L252,306 L242,324 L233,344 L225,365 L224,373 L226,371 L233,350 L241,332 L249,316 L257,302 L270,283 L279,271 Z " fill="#493F70" transform="translate(0,0)"/>
<path d="M0,0 L3,1 L13,14 L19,27 L19,34 L18,43 L26,51 L25,53 L17,45 L14,45 L5,62 L-4,72 L-11,80 L-15,84 L-18,103 L-23,137 L-24,141 L-24,151 L-20,164 L-21,172 L-30,201 L-34,215 L-37,214 L-43,198 L-56,168 L-60,159 L-59,154 L-47,127 L-37,104 L-26,79 L-13,50 L-8,41 L-4,42 L-1,45 L1,52 L3,52 L3,41 L-2,24 L-3,21 L-2,8 Z " fill="#F8F6F9" transform="translate(340,221)"/>
<path d="M0,0 L3,1 L3,3 L7,5 L19,13 L34,17 L40,20 L41,31 L39,31 L38,39 L37,45 L36,43 L33,43 L27,33 L25,55 L23,62 L10,71 L4,73 L-9,73 L-16,72 L-19,69 L-23,66 L-23,64 L-26,63 L-27,54 L-30,52 L-26,50 L-24,44 L-19,38 L-5,28 L-22,27 L-22,26 L-17,25 L-2,25 L1,18 L0,17 Z " fill="#9C8CAC" transform="translate(301,190)"/>
<path d="M0,0 L7,1 L12,6 L14,10 L13,13 L11,11 L15,17 L19,17 L27,24 L25,20 L16,9 L14,5 L15,0 L16,4 L27,4 L44,11 L52,16 L59,26 L64,37 L70,55 L67,58 L55,57 L48,55 L43,48 L41,36 L33,33 L21,30 L8,21 L2,16 L-2,4 Z " fill="#BBD5E3" transform="translate(299,174)"/>
<path d="M0,0 L17,0 L27,2 L37,6 L43,11 L46,17 L47,22 L47,29 L44,25 L45,34 L46,36 L46,51 L50,47 L52,39 L53,39 L52,48 L49,52 L27,52 L27,50 L18,49 L12,46 L9,41 L6,35 L5,33 L5,26 L8,21 L12,22 L16,27 L18,31 L18,37 L26,38 L35,38 L25,24 L14,11 L10,7 L5,5 Z " fill="#AECCDC" transform="translate(250,164)"/>
<path d="M0,0 L13,2 L22,6 L33,18 L41,30 L41,31 L31,31 L23,29 L21,21 L17,15 L13,14 L11,18 L10,25 L7,21 L0,3 Z " fill="#3E3F5E" transform="translate(245,172)"/>
<path d="M0,0 L2,4 L2,37 L-7,37 L-21,35 L-20,31 L-10,16 L-1,1 Z " fill="#564B74" transform="translate(277,125)"/>
<path d="M0,0 L3,1 L14,16 L24,35 L21,36 L19,35 L19,54 L16,51 L7,36 L3,32 L3,30 L-1,28 L-6,22 L0,24 L16,32 L7,16 L0,2 Z " fill="#9385B1" transform="translate(147,105)"/>
<path d="M0,0 L9,1 L29,7 L25,11 L18,14 L-11,14 L-10,10 L-3,3 Z " fill="#6C789D" transform="translate(212,156)"/>
<path d="M0,0 L3,0 L7,4 L10,6 L8,10 L6,12 L-3,13 L-14,20 L-21,24 L-28,27 L-38,31 L-41,31 L-33,24 L-20,14 L-7,5 Z " fill="#2F294F" transform="translate(275,254)"/>
<path d="M0,0 L4,2 L11,10 L19,20 L21,26 L21,36 L17,35 L16,34 L15,52 L13,53 L12,51 L10,29 L8,25 L7,16 L5,16 L4,18 L1,9 Z " fill="#AA9EC0" transform="translate(133,159)"/>
<path d="M0,0 L6,1 L18,10 L27,19 L36,31 L46,46 L54,58 L63,69 L72,77 L82,84 L79,85 L65,76 L58,69 L47,55 L36,38 L25,23 L16,13 L9,7 L0,1 Z " fill="#E7E3F2" transform="translate(127,75)"/>
<path d="M0,0 L3,0 L8,11 L13,33 L13,44 L18,45 L14,47 L6,43 L3,40 L2,14 Z " fill="#F4F1F4" transform="translate(277,123)"/>
<path d="M0,0 L4,3 L0,7 L-4,17 L-7,34 L-7,53 L-4,68 L0,78 L-1,81 L-3,77 L-6,76 L-11,61 L-11,30 L-8,16 L-3,4 Z " fill="#AFA4C9" transform="translate(126,75)"/>
<path d="M0,0 L5,5 L9,13 L8,19 L4,24 L-1,28 L-3,27 L-1,16 Z " fill="#D4CBE1" transform="translate(327,222)"/>
<path d="M0,0 L1,0 L1,26 L4,27 L4,29 L-12,26 L-31,25 L-34,27 L-34,35 L-32,43 L-35,44 L-38,37 L-38,25 L-34,23 L-15,23 L0,25 Z " fill="#DFC7B8" transform="translate(279,137)"/>
<path d="M0,0 L8,1 L16,3 L17,10 L27,21 L31,28 L26,26 L18,19 L17,21 L13,16 L12,12 L15,13 L11,6 L0,1 Z " fill="#594343" transform="translate(297,171)"/>
<path d="M0,0 L4,1 L13,6 L20,14 L24,21 L29,24 L30,29 L29,34 L32,42 L32,52 L31,53 L21,52 L17,50 L20,49 L27,50 L31,49 L28,38 L24,26 L17,14 L11,7 L0,1 Z " fill="#D1B9B7" transform="translate(339,181)"/>
<path d="M0,0 L5,1 L9,11 L12,17 L12,22 L8,18 L4,12 L0,7 L-7,8 L-13,9 L-12,6 L-5,5 Z " fill="#42292B" transform="translate(241,181)"/>
<path d="M0,0 L3,0 L9,15 L9,17 L13,19 L13,21 L17,29 L23,32 L32,34 L32,36 L24,35 L17,32 L12,27 L2,8 L1,2 L-2,1 Z " fill="#D3B9AC" transform="translate(245,180)"/>
<path d="M0,0 L5,3 L10,6 L15,9 L18,14 L9,11 L-5,8 L-5,2 Z " fill="#748CAA" transform="translate(249,164)"/>
<path d="M0,0 L2,1 L5,10 L5,34 L3,37 L1,37 L1,27 L2,25 L2,18 L1,18 L-1,2 Z " fill="#4A414C" transform="translate(296,177)"/>
<path d="M0,0 L3,1 L-4,12 L-15,29 L-19,36 L-27,36 L-23,34 L-22,33 L-16,25 L-6,9 Z " fill="#B2A7C9" transform="translate(275,124)"/>
<path d="M0,0 L28,6 L44,12 L41,13 L26,8 L19,6 L19,11 L18,11 L18,6 L12,6 L3,4 L6,6 L1,8 L-2,3 L-2,1 Z " fill="#E5CFC4" transform="translate(295,168)"/>
<path d="M0,0 L5,2 L3,3 L0,2 L2,6 L2,8 L3,11 L5,11 L11,19 L13,22 L10,22 L20,34 L19,36 L7,22 L5,17 L-2,10 L-1,1 Z " fill="#8E86A8" transform="translate(359,254)"/>
<path d="M0,0 L4,2 L10,10 L17,24 L21,37 L21,42 L18,39 L15,28 L10,16 L4,6 Z " fill="#49414C" transform="translate(349,188)"/>
<path d="M0,0 L3,1 L4,4 L6,5 L11,17 L16,25 L19,24 L21,29 L21,33 L19,33 L11,22 L1,4 Z " fill="#C3B8DB" transform="translate(121,151)"/>
<path d="M0,0 L2,1 L-6,17 L-14,35 L-22,58 L-23,54 L-16,34 L-8,16 Z " fill="#B6ADD1" transform="translate(247,315)"/>
<path d="M0,0 L5,1 L12,10 L11,12 L-1,6 L-8,4 L-5,2 Z " fill="#9FA1BF" transform="translate(237,187)"/>
<path d="M0,0 L0,3 L-10,16 L-25,39 L-30,47 L-31,45 L-18,23 L-8,10 L-1,1 Z " fill="#D3C9E5" transform="translate(279,268)"/>
<path d="M0,0 L2,4 L3,7 L-2,10 L-5,13 L-10,13 L-11,8 L-3,3 L0,3 Z " fill="#EABE98" transform="translate(241,174)"/>
<path d="M0,0 L2,4 L-8,9 L-24,19 L-30,20 L-25,16 L-8,6 Z " fill="#C08373" transform="translate(229,183)"/>
<path d="M0,0 L16,4 L26,8 L35,13 L33,15 L17,7 L11,5 L0,4 Z " fill="#5B5656" transform="translate(315,174)"/>
<path d="M0,0 L7,1 L19,6 L23,12 L22,15 L20,15 L16,9 L9,5 L0,2 Z " fill="#54433F" transform="translate(274,164)"/>
<path d="M0,0 L19,1 L26,3 L26,4 L1,4 L-4,5 L-2,1 Z " fill="#54433F" transform="translate(248,161)"/>
<path d="M0,0 L2,4 L3,6 L5,5 L5,15 L4,17 L4,28 L2,28 L1,13 L-1,7 Z " fill="#8FA0B1" transform="translate(294,187)"/>
</svg>
